<svg fill="none" height="159" viewBox="0 0 159 159" width="159" xmlns="http://www.w3.org/2000/svg"><rect fill="#fff" height="159" rx="17.6667" width="159"/><g stroke-width="5.63567"><path d="m29.9671 133.562 46.8542 8.219m-32.8959-121.0446c11.1253 30.282 28.488 77.5419 28.488 77.5419m14.04-59.5263-60.4861 86.674m3.1835 3.57 40.1608-23.412" stroke="#ff954a"/><path d="m123.431 40.4125s-78.9342-20.0081-79.8321-20.0911c-.7825-.0724 38.8591-6.6398 49.0582-8.3262l1.9781 1.4354-18.0587 84.7648" stroke="#ff4a49"/><path d="m79.7599 101.018 44.6501-56.1225" stroke="#ff4a49"/><path d="m11.4833 88.6145s5.0969-44.7983 5.1033-44.9472c.0065-.1489.2482-.2667.3658-.1334.1175.1334 52.7314 58.0321 52.7314 58.0321" stroke="#ff4a49"/><path d="m83.7597 36.7595-71.914 52.5525 9.5505 35.118" stroke="#ff954a"/><path d="m74.4541 108.573 2.1224 28.476" stroke="#ffab4a"/></g><path d="m152.817 107.079h-5.061l-17.848-57.8881 4.514-1.4509z" fill="#ff954a"/><path d="m149.96 102.263 1.387 4.816h-72.5666v-4.816z" fill="#ff954a"/><path d="m126.947 34.4059-3.114 3.627-28.4006-26.0733-2.6937-2.41781 4.163-.70661s.7715-.02552 1.1428.11218c.3714.13769.6531.29079.6531.29079z" fill="#ff954a"/><path d="m128.573 48.2995-48.8947 92.9005" stroke="#ff6b49" stroke-width="5.63567"/><ellipse cx="129.553" cy="41.4087" fill="#ffab4a" rx="8.81578" ry="8.9663"/><ellipse cx="24.4164" cy="130.075" fill="#ffab4a" rx="8.81578" ry="8.9663"/><ellipse cx="77.1479" cy="141.2" fill="#ff6b49" rx="8.81578" ry="8.9663"/><ellipse cx="73.7195" cy="103.509" fill="#ff954a" rx="8.81578" ry="8.9663"/><ellipse cx="39.9257" cy="69.636" fill="#ff6b49" rx="8.81578" ry="8.9663"/><ellipse cx="90.045" cy="31.9442" fill="#ff4a49" rx="8.81578" ry="8.9663"/></svg>