<svg version="1.2" baseProfile="tiny-ps" width="932" height="932" viewBox="0 0 932 932" fill="none" xmlns="http://www.w3.org/2000/svg">
<rect width="932" height="932" rx="103.556" fill="white"/>
<path d="M175.656 782.894L450.299 831.071M257.475 121.549C322.687 299.051 424.461 576.072 424.461 576.072M506.758 227.15L152.211 735.203M170.871 756.129L406.279 618.896" stroke="#FF954A" stroke-width="33.0342"/>
<path d="M723.506 236.883C723.506 236.883 260.824 119.603 255.561 119.116C250.974 118.692 483.339 80.1965 543.122 70.3118L554.717 78.7253L448.863 575.585" stroke="#FF4A49" stroke-width="33.0342"/>
<path d="M467.523 592.13L729.247 263.161" stroke="#FF4A49" stroke-width="33.0342"/>
<path d="M67.3112 519.426C67.3112 519.426 97.1869 256.835 97.2247 255.962C97.2626 255.089 98.6798 254.398 99.3687 255.18C100.058 255.962 408.461 595.342 408.461 595.342" stroke="#FF4A49" stroke-width="33.0342"/>
<path d="M490.969 215.471L69.4355 523.514L125.417 729.363" stroke="#FF954A" stroke-width="33.0342"/>
<path d="M436.423 636.415L448.863 803.333" stroke="#FFAB4A" stroke-width="33.0342"/>
<path d="M895.755 627.655H866.09L761.471 288.339L787.933 279.834L895.755 627.655Z" fill="#FF954A"/>
<path d="M879.009 599.43L887.143 627.655H461.782V599.43H879.009Z" fill="#FF954A"/>
<path d="M744.115 201.675L725.862 222.935L559.39 70.1026L543.6 55.9304L568.002 51.7885C568.002 51.7885 572.524 51.639 574.701 52.4461C576.878 53.2532 578.529 54.1506 578.529 54.1506L744.115 201.675Z" fill="#FF954A"/>
<path d="M753.649 283.114L467.045 827.665" stroke="#FF6B49" stroke-width="33.0342"/>
<ellipse cx="759.391" cy="242.723" rx="51.6749" ry="52.5572" fill="#FFAB4A"/>
<ellipse cx="143.12" cy="762.454" rx="51.6749" ry="52.5572" fill="#FFAB4A"/>
<ellipse cx="452.212" cy="827.664" rx="51.6749" ry="52.5572" fill="#FF6B49"/>
<ellipse cx="432.117" cy="606.73" rx="51.6749" ry="52.5572" fill="#FF954A"/>
<ellipse cx="234.03" cy="408.181" rx="51.6749" ry="52.5572" fill="#FF6B49"/>
<ellipse cx="527.811" cy="187.245" rx="51.6749" ry="52.5572" fill="#FF4A49"/>
</svg>
